<svg xmlns="http://www.w3.org/2000/svg" width="60" height="60" viewBox="0 0 60 60"><g fill="none" fill-rule="evenodd"><circle cx="30" cy="30" r="30" fill="#006ABB"/><path d="M19.744 15.002a.149.149 0 01.171.148v1.569a.143.143 0 01-.113.14 3.865 3.865 0 00-2.973 3.762v18.758a3.864 3.864 0 002.973 3.762.144.144 0 01.113.14v1.57c0 .09-.081.162-.17.147A5.695 5.695 0 0115 39.379V20.621a5.696 5.696 0 014.744-5.619zm20.512 0A5.696 5.696 0 0145 20.62v18.758a5.696 5.696 0 01-4.744 5.619.15.15 0 01-.172-.148V43.28c0-.067.048-.125.113-.14a3.864 3.864 0 002.974-3.762V20.621a3.864 3.864 0 00-2.974-3.762.144.144 0 01-.113-.14v-1.57a.15.15 0 01.172-.147zm-2.021 7.847v1.164H36.37V37.73h-2.134l-8.79-11.554v10.399h2.081v1.165H22.45v-1.165h1.486v-12.56h-1.512v-1.16H25.9l9.06 12.034c-.01-.08-.014-.907-.016-2.07V32.3l-.001-.272v-1.459l.001-.922c.002-2.062.008-4.16.01-5.11v-.25l.001-.096v-.178h-1.482v-1.164h4.76z" fill="#FFF"/></g></svg>