<svg xmlns="http://www.w3.org/2000/svg" width="60" height="60" viewBox="0 0 60 60"><g fill="none" fill-rule="evenodd"><circle cx="30" cy="30" r="30" fill="#00C678"/><path fill="#FFF" fill-rule="nonzero" d="M10.963 39.262v-.931h-1.28v.931h1.28zM9.466 44.4c.289 0 .527-.043.714-.13.186-.086.334-.207.444-.364.11-.156.185-.34.227-.553.042-.212.063-.444.063-.696V39.71H9.732v3.087c0 .182-.03.327-.088.434-.058.107-.19.161-.396.161a.577.577 0 01-.216-.042 1.59 1.59 0 01-.204-.098l-.44.805c.135.112.298.197.49.255.19.059.387.088.588.088zm3.716-1.288c.164 0 .318-.013.463-.038.144-.026.275-.056.392-.091a2.47 2.47 0 00.518-.221l-.371-.77a1.82 1.82 0 01-.389.161 1.865 1.865 0 01-.55.077c-.153 0-.283-.016-.388-.049a.71.71 0 01-.252-.13.463.463 0 01-.133-.171.566.566 0 01-.045-.175h2.226v-.224c0-.317-.043-.594-.127-.83a1.653 1.653 0 00-.346-.588 1.403 1.403 0 00-.518-.35 1.736 1.736 0 00-.634-.115c-.289 0-.542.051-.759.154a1.61 1.61 0 00-.539.402 1.687 1.687 0 00-.319.567c-.07.213-.104.429-.104.648 0 .55.16.979.482 1.285.322.305.787.458 1.393.458zm.42-2.107h-1.168c0-.056.011-.114.035-.175a.54.54 0 01.104-.168.602.602 0 01.182-.13.622.622 0 01.26-.052.597.597 0 01.444.182.51.51 0 01.143.343zm2.576 2.086a1.426 1.426 0 00.47-.091c.088-.033.175-.077.259-.133.084-.056.158-.124.224-.203l.041.336h1.142v-3.29H17.13v1.764c0 .07-.009.139-.025.207a.526.526 0 01-.084.185c-.04.056-.091.1-.154.133s-.141.049-.234.049c-.173 0-.293-.049-.361-.147a.676.676 0 01-.101-.392V39.71h-1.184v2.079c0 .233.03.432.091.595.061.163.144.297.249.402.105.105.23.182.375.231.144.05.303.074.476.074zm4.145 1.393c.583 0 1.026-.135 1.33-.406.303-.27.455-.719.455-1.344v-2.821a4.66 4.66 0 00-.739-.203 4.137 4.137 0 00-.767-.07c-.28 0-.537.04-.773.119-.236.08-.439.194-.609.343-.17.15-.302.336-.395.56-.094.224-.14.478-.14.763 0 .229.032.438.098.627a1.27 1.27 0 00.742.801c.181.075.39.112.623.112.135 0 .273-.014.413-.042a.758.758 0 00.37-.189v.112c0 .257-.059.44-.178.55-.119.11-.3.164-.543.164a1.44 1.44 0 01-.437-.067 1.703 1.703 0 01-.402-.185l-.448.819c.21.135.434.229.672.28.238.051.48.077.728.077zm.098-2.45a.53.53 0 01-.396-.161c-.105-.107-.157-.27-.157-.49 0-.107.012-.209.038-.305a.68.68 0 01.123-.248.597.597 0 01.216-.168.736.736 0 01.316-.063c.125 0 .252.021.378.063v.805c0 .196-.048.34-.144.43a.517.517 0 01-.375.137zm3.486 1.057a1.207 1.207 0 00.903-.427l.063.336h1.078v-4.669h-1.184v1.386a1.674 1.674 0 00-.517-.077c-.267 0-.508.044-.725.133a1.623 1.623 0 00-.92.92 1.844 1.844 0 00-.127.69c0 .294.047.563.14.808.094.245.23.443.407.592.116.098.248.174.395.227.147.054.31.081.486.081zm.343-1.015c-.197 0-.342-.06-.438-.178a.733.733 0 01-.143-.473c0-.266.066-.464.199-.595a.707.707 0 01.515-.196c.135 0 .263.021.384.063v.791c0 .187-.043.331-.129.434-.086.103-.216.154-.389.154zm3.555-2.814v-.931h-1.28v.931h1.28zM26.308 44.4c.289 0 .527-.043.713-.13.187-.086.335-.207.445-.364.11-.156.185-.34.227-.553.042-.212.063-.444.063-.696V39.71h-1.183v3.087a.916.916 0 01-.087.434c-.058.107-.19.161-.396.161a.577.577 0 01-.216-.042 1.517 1.517 0 01-.203-.098l-.441.805c.135.112.298.197.49.255.19.059.387.088.588.088zm3.598-1.288c.26 0 .499-.046.713-.137.215-.09.4-.215.553-.374.154-.159.275-.344.361-.556.086-.213.13-.443.13-.69 0-.243-.044-.471-.13-.686a1.721 1.721 0 00-.36-.56 1.67 1.67 0 00-.553-.375 1.833 1.833 0 00-.715-.136c-.26 0-.499.046-.713.136a1.65 1.65 0 00-.553.375 1.707 1.707 0 00-.361.56c-.086.215-.13.443-.13.686 0 .247.044.477.13.69a1.653 1.653 0 00.913.93c.215.091.453.137.715.137zm0-1.036a.59.59 0 01-.47-.203.767.767 0 01-.174-.518c0-.21.058-.383.174-.518a.59.59 0 01.47-.203.59.59 0 01.469.203.767.767 0 01.174.518c0 .21-.058.383-.174.518a.59.59 0 01-.47.203zm3.303 1.015a1.395 1.395 0 00.729-.224c.084-.056.158-.124.223-.203l.042.336h1.141v-3.29h-1.183v1.764a.9.9 0 01-.024.207.526.526 0 01-.084.185c-.04.056-.091.1-.154.133s-.141.049-.235.049c-.172 0-.292-.049-.36-.147a.676.676 0 01-.102-.392V39.71H32.02v2.079c0 .233.03.432.09.595.061.163.144.297.249.402.105.105.23.182.374.231.145.05.304.074.477.074zM37.04 43v-1.477c0-.565.256-.847.77-.847.116 0 .23.014.343.042l.154-1.008a.842.842 0 00-.179-.042 1.697 1.697 0 00-.242-.014.888.888 0 00-.5.136 1.307 1.307 0 00-.346.333l-.043-.413h-1.14V43h1.182zm2.652 0v-1.757c0-.07.009-.139.025-.207a.5.5 0 01.087-.185c.043-.056.099-.1.169-.133s.158-.049.265-.049c.15 0 .258.049.326.147a.676.676 0 01.101.392V43h1.183v-2.072c0-.229-.03-.426-.09-.591a1.084 1.084 0 00-.252-.407.986.986 0 00-.382-.23 1.482 1.482 0 00-.48-.074 1.395 1.395 0 00-.728.224 1.051 1.051 0 00-.224.203l-.041-.343h-1.142V43h1.183zm3.5.112c.224 0 .412-.03.564-.091.152-.06.302-.17.451-.329l.042.308h1.114v-1.988a1.54 1.54 0 00-.113-.612 1.206 1.206 0 00-.315-.441 1.31 1.31 0 00-.482-.267 2.099 2.099 0 00-.623-.087c-.392 0-.715.047-.967.14a2.104 2.104 0 00-.587.308l.447.679c.099-.07.227-.132.386-.185.158-.054.343-.081.553-.081.06 0 .122.006.185.017a.557.557 0 01.175.064c.054.03.098.072.133.126a.368.368 0 01.052.206v.063a4.469 4.469 0 00-.213-.021 3.45 3.45 0 00-.256-.007c-.21 0-.41.026-.602.077-.19.051-.359.127-.503.227a1.062 1.062 0 00-.47.9c0 .196.033.358.099.486a.83.83 0 00.252.305.94.94 0 00.336.157c.12.03.235.046.343.046zm.511-.805c-.26 0-.392-.121-.392-.364 0-.107.047-.2.14-.276.094-.078.238-.116.434-.116.136 0 .243.01.322.028v.217c0 .098-.015.18-.045.245s-.069.118-.116.158a.41.41 0 01-.16.084.717.717 0 01-.182.024zm3.004.805c.223 0 .411-.03.563-.091.152-.06.302-.17.452-.329l.042.308h1.113v-1.988c0-.233-.038-.438-.112-.612a1.209 1.209 0 00-.316-.441 1.307 1.307 0 00-.483-.267 2.09 2.09 0 00-.623-.087c-.392 0-.713.047-.965.14a2.119 2.119 0 00-.589.308l.449.679c.097-.07.226-.132.384-.185.16-.054.343-.081.553-.081.061 0 .123.006.186.017a.557.557 0 01.175.064c.054.03.098.072.133.126a.368.368 0 01.053.206v.063a3.439 3.439 0 00-.469-.028c-.21 0-.411.026-.602.077-.192.051-.36.127-.505.227a1.061 1.061 0 00-.469.9c0 .196.033.358.099.486a.83.83 0 00.252.305.944.944 0 00.335.157c.122.03.236.046.343.046zm.51-.805c-.26 0-.392-.121-.392-.364 0-.107.047-.2.14-.276.094-.078.239-.116.434-.116.136 0 .243.01.322.028v.217c0 .098-.015.18-.045.245s-.069.118-.115.158a.411.411 0 01-.162.084.698.698 0 01-.181.024zm3.34.693v-4.669h-1.183V43h1.183z"/><path fill="#FFF" d="M46.973 29.113c0-2.277-1.107-2.963-4.012-3.658-1.485-.348-1.897-.547-1.897-.978 0-.413.23-.712 1.188-.712 1.172 0 2.195.398 3.219 1.093 0 0 1.359-2.15 1.502-2.517C45.8 21.481 44.381 21 42.417 21c-2.79 0-4.555 1.474-4.555 3.66 0 2.318 1.337 3.08 4.126 3.726 1.551.364 1.964.629 1.964 1.059 0 .547-.363.746-1.502.746-1.073 0-2.541-.58-3.383-1.16l-1.551 2.517c1.204.795 3.003 1.408 4.868 1.408 2.773 0 4.59-.996 4.59-3.743"/><path fill="#E61E14" d="M24.619 26.978c0-3.302 2.721-5.978 6.079-5.978 3.357 0 6.08 2.676 6.08 5.978 0 3.302-2.723 5.978-6.08 5.978-3.358 0-6.08-2.676-6.08-5.978m3.098 0c0-1.62 1.335-2.933 2.982-2.933 1.647 0 2.982 1.314 2.982 2.933 0 1.62-1.335 2.933-2.982 2.933-1.647 0-2.982-1.313-2.982-2.933"/><path fill="#FFF" d="M23.185 32.956V21h-3.151v6.149S15.961 21 15.935 21h-2.78v11.956h3.153v-6.149l4.142 6.15h2.736z"/></g></svg>