<svg xmlns="http://www.w3.org/2000/svg" width="60" height="60" viewBox="0 0 60 60"><g fill="none" fill-rule="evenodd"><circle cx="30" cy="30" r="30" fill="#FF6E6E"/><path d="M24.674 42.545c.19 0 .36-.037.507-.11.148-.074.273-.175.375-.302.102-.126.178-.269.227-.427a1.645 1.645 0 000-.981 1.213 1.213 0 00-.227-.422 1.149 1.149 0 00-.375-.296c-.148-.074-.317-.11-.507-.11s-.361.036-.513.11a1.09 1.09 0 00-.375.296 1.36 1.36 0 00-.227.422 1.533 1.533 0 00-.079.49 1.504 1.504 0 00.306.918c.1.127.224.228.375.301.152.074.323.111.513.111m-2.664-1.33c0-.366.065-.708.196-1.029a2.494 2.494 0 011.384-1.403c.327-.137.688-.206 1.083-.206s.754.069 1.078.206a2.509 2.509 0 011.378 1.404c.13.32.196.662.196 1.029 0 .365-.065.708-.196 1.028-.13.32-.311.6-.544.84-.232.238-.51.428-.834.569-.324.14-.683.211-1.078.211s-.756-.07-1.083-.211a2.539 2.539 0 01-1.384-1.409 2.707 2.707 0 01-.196-1.028m7.736 1.171c.197.134.489.2.876.2.374 0 .668-.124.883-.374.214-.25.322-.582.322-.998 0-.161-.02-.32-.058-.475a1.252 1.252 0 00-.18-.406.913.913 0 00-.317-.28c-.13-.07-.29-.105-.48-.105a.98.98 0 00-.777.348 1.234 1.234 0 00-.27.771v1.319zm-1.511-3.641h1.458c.013.092.024.181.031.269l.022.269c.161-.204.37-.36.623-.47.253-.108.518-.163.792-.163.36 0 .677.07.951.211.275.14.504.33.687.565.183.235.32.506.412.812.092.306.137.621.137.945 0 .457-.077.855-.232 1.193a2.479 2.479 0 01-.602.833c-.247.218-.525.38-.835.486-.31.105-.616.158-.92.158-.239 0-.436-.021-.59-.064a7.566 7.566 0 01-.423-.126v2.142h-1.511v-7.06zm6.392 3.229c.218.19.442.336.67.438.23.102.481.153.756.153.324 0 .593-.088.808-.264.215-.175.323-.422.323-.738a.966.966 0 00-.249-.655c-.165-.19-.427-.285-.787-.285-.133 0-.259.013-.375.037a1.476 1.476 0 00-.27.08l-.39-.623 1.7-1.741h-2.482v-1.32h4.184v1.088l-1.384 1.561c.528.099.928.32 1.2.665.27.345.406.777.406 1.298 0 .352-.072.665-.217.94a2.094 2.094 0 01-.576.69c-.24.187-.516.33-.829.428-.313.099-.64.148-.977.148a3.72 3.72 0 01-1.326-.222 3.18 3.18 0 01-1.01-.601l.825-1.077zm12.346-12.862c0-2.277-1.107-2.963-4.012-3.658-1.485-.348-1.897-.547-1.897-.978 0-.413.23-.712 1.188-.712 1.172 0 2.195.398 3.219 1.093 0 0 1.359-2.15 1.502-2.517C45.8 21.481 44.381 21 42.417 21c-2.79 0-4.555 1.474-4.555 3.66 0 2.318 1.337 3.08 4.126 3.726 1.551.364 1.964.629 1.964 1.059 0 .547-.363.746-1.502.746-1.073 0-2.541-.58-3.383-1.16l-1.551 2.517c1.204.795 3.003 1.408 4.868 1.408 2.773 0 4.59-.996 4.59-3.743" fill="#FFF"/><path fill="#E61E14" d="M24.619 26.978c0-3.302 2.721-5.978 6.079-5.978 3.357 0 6.08 2.676 6.08 5.978 0 3.302-2.723 5.978-6.08 5.978-3.358 0-6.08-2.676-6.08-5.978m3.098 0c0-1.62 1.335-2.933 2.982-2.933 1.647 0 2.982 1.314 2.982 2.933 0 1.62-1.335 2.933-2.982 2.933-1.647 0-2.982-1.313-2.982-2.933"/><path fill="#FFF" d="M23.185 32.956V21h-3.151v6.149S15.961 21 15.935 21h-2.78v11.956h3.153v-6.149l4.142 6.15h2.736z"/></g></svg>