<svg xmlns="http://www.w3.org/2000/svg" width="60" height="60" viewBox="0 0 60 60"><g fill="none" fill-rule="evenodd"><circle cx="30" cy="30" r="30" fill="#783CDC"/><path d="M15.132 42.408c.158.142.366.26.624.355.258.095.507.143.748.143.22 0 .402-.027.547-.082a.307.307 0 00.216-.314.317.317 0 00-.046-.168.44.44 0 00-.17-.142 2.154 2.154 0 00-.346-.137 12.02 12.02 0 00-.562-.162 3.823 3.823 0 01-.552-.188 1.993 1.993 0 01-.485-.29 1.319 1.319 0 01-.34-.416 1.182 1.182 0 01-.13-.568c0-.223.052-.425.155-.604.103-.18.246-.335.428-.467.183-.132.4-.233.65-.305.251-.07.521-.106.81-.106.413 0 .774.046 1.084.137.31.092.594.225.856.401l-.63.964a3.29 3.29 0 00-.541-.274 1.86 1.86 0 00-.686-.121c-.227 0-.392.032-.495.096-.104.064-.155.15-.155.259 0 .155.106.27.32.345.213.074.502.159.866.254.496.135.855.32 1.078.558.224.237.336.552.336.944 0 .264-.06.49-.18.68-.121.19-.283.347-.486.472s-.433.218-.69.279c-.259.06-.522.091-.79.091-.433 0-.843-.057-1.228-.172-.385-.115-.698-.291-.938-.528l.733-.934zm4.735-2.142h-.763V39.12h.763v-1.44h1.486v1.44H22.6v1.147h-1.247v1.878c0 .23.046.408.14.533.092.126.238.188.438.188a.93.93 0 00.392-.076c.11-.05.213-.11.31-.178l.598.893c-.468.366-.977.549-1.527.549-.344 0-.633-.05-.867-.148a1.45 1.45 0 01-.567-.406c-.145-.172-.248-.38-.31-.624s-.093-.514-.093-.812v-1.798zm6.098 2.508a1.08 1.08 0 00.861-.397c.1-.121.174-.258.222-.41a1.566 1.566 0 000-.944 1.155 1.155 0 00-.222-.406 1.117 1.117 0 00-.366-.285 1.122 1.122 0 00-.495-.106 1.15 1.15 0 00-.5.106c-.149.071-.27.166-.367.285-.096.118-.17.253-.222.406a1.477 1.477 0 000 .944c.052.152.126.289.222.41.096.123.218.219.366.29.148.071.315.107.5.107m-2.6-1.28c0-.351.065-.681.192-.989.127-.308.304-.577.531-.807.227-.23.5-.411.82-.543.32-.132.672-.198 1.058-.198.385 0 .736.066 1.052.198.316.132.588.313.815.543a2.514 2.514 0 01.722 1.797 2.51 2.51 0 01-.722 1.796c-.227.23-.499.413-.815.548a2.635 2.635 0 01-1.052.203c-.386 0-.738-.067-1.058-.203a2.505 2.505 0 01-.82-.548 2.484 2.484 0 01-.531-.807 2.568 2.568 0 01-.191-.99m6.077-2.374h1.423l.052.598c.124-.162.294-.318.51-.466.217-.15.497-.224.842-.224.13 0 .242.007.335.02.093.014.184.038.273.072l-.237 1.288a1.817 1.817 0 00-.537-.07c-.35 0-.634.103-.85.31-.217.206-.326.498-.326.877v2.355h-1.485v-4.76zm4.095 4.76h1.486v-4.76h-1.486v4.76zm-.051-5.461h1.589v-1.31h-1.59v1.31zm5.942 2.578a.835.835 0 00-.062-.31.91.91 0 00-.185-.289 1.02 1.02 0 00-.31-.218 1.053 1.053 0 00-.444-.086 1.12 1.12 0 00-.453.086c-.131.058-.24.13-.325.218a.93.93 0 00-.196.29.783.783 0 00-.068.31h2.043zm1.3 2.365c-.055.034-.138.09-.247.168a2.27 2.27 0 01-.429.228 3.94 3.94 0 01-.624.198c-.24.058-.516.086-.825.086-.413 0-.784-.062-1.114-.187-.33-.126-.61-.3-.841-.523a2.199 2.199 0 01-.526-.807 2.897 2.897 0 01-.18-1.04c0-.332.056-.652.17-.96.113-.308.276-.577.49-.807.212-.23.474-.414.783-.553.31-.139.66-.208 1.053-.208.392 0 .736.068 1.032.203.295.136.545.323.748.563.202.24.355.528.459.863.103.335.154.702.154 1.101v.244h-3.446c.007.257.122.482.346.675.224.193.531.29.923.29.386 0 .699-.056.94-.168a3.2 3.2 0 00.525-.29l.61.924zm1.444-.954c.159.142.367.26.625.355.258.095.507.143.748.143.22 0 .402-.027.546-.082a.307.307 0 00.217-.314.317.317 0 00-.046-.168.44.44 0 00-.17-.142 2.154 2.154 0 00-.346-.137 12.02 12.02 0 00-.562-.162 3.823 3.823 0 01-.552-.188 1.974 1.974 0 01-.485-.29 1.319 1.319 0 01-.34-.416 1.182 1.182 0 01-.13-.568c0-.223.052-.425.155-.604.103-.18.246-.335.428-.467s.399-.233.65-.305c.251-.07.521-.106.81-.106.413 0 .774.046 1.083.137.31.092.595.225.857.401l-.63.964a3.33 3.33 0 00-.541-.274 1.86 1.86 0 00-.686-.121c-.227 0-.392.032-.496.096-.103.064-.154.15-.154.259 0 .155.106.27.32.345.212.074.501.159.866.254.495.135.855.32 1.078.558.224.237.335.552.335.944 0 .264-.06.49-.18.68-.12.19-.282.347-.485.472s-.433.218-.691.279c-.258.06-.521.091-.79.091-.433 0-.842-.057-1.227-.172a2.21 2.21 0 01-.939-.528l.732-.934zm4.801-13.295c0-2.277-1.107-2.963-4.012-3.658-1.485-.348-1.897-.547-1.897-.978 0-.413.23-.712 1.188-.712 1.172 0 2.195.398 3.219 1.093 0 0 1.359-2.15 1.502-2.517C45.8 21.481 44.381 21 42.417 21c-2.79 0-4.555 1.474-4.555 3.66 0 2.318 1.337 3.08 4.126 3.726 1.551.364 1.964.629 1.964 1.059 0 .547-.363.746-1.502.746-1.073 0-2.541-.58-3.383-1.16l-1.551 2.517c1.204.795 3.003 1.408 4.868 1.408 2.773 0 4.59-.996 4.59-3.743" fill="#FFF"/><path fill="#E61E14" d="M24.619 26.978c0-3.302 2.721-5.978 6.079-5.978 3.357 0 6.08 2.676 6.08 5.978 0 3.302-2.723 5.978-6.08 5.978-3.358 0-6.08-2.676-6.08-5.978m3.098 0c0-1.62 1.335-2.933 2.982-2.933 1.647 0 2.982 1.314 2.982 2.933 0 1.62-1.335 2.933-2.982 2.933-1.647 0-2.982-1.313-2.982-2.933"/><path fill="#FFF" d="M23.185 32.956V21h-3.151v6.149S15.961 21 15.935 21h-2.78v11.956h3.153v-6.149l4.142 6.15h2.736z"/></g></svg>