<svg xmlns="http://www.w3.org/2000/svg" width="72" height="48" viewBox="0 0 72 48" class="sc-144c310-2 fEYdje"><g fill="none" fill-rule="evenodd"><path fill="#D7D8D6" d="M46.65 27.04l-19.3 19.29c-1.94 1.94-4.16 1.94-6.1 0l-19.3-19.3c-1.94-1.93-1.94-4.16 0-6.1l19.3-19.29c1.94-1.94 4.16-1.94 6.1 0l19.3 19.29c1.94 1.94 1.94 4.17 0 6.1z"/><path fill="#FF6D00" d="M19.18 15.49l-1.41-1.41c-.59-.58-1.13-.57-1.8.09l-1.22 1.23c-.66.66-.67 1.2-.1 1.79l1.42 1.4c.58.6 1.13.58 1.79-.08l1.23-1.23c.65-.65.67-1.2.09-1.79zM20.72 14c1.45 1.46 1.48 3.2-.15 4.83l-1.24 1.24c-.43.42-.79.65-1.08.71l1.08 1.08c.54.54.47 1.14.05 1.56-.42.41-1.03.5-1.57-.05l-4.7-4.69c-1.45-1.46-1.47-3.2.16-4.83l1.16-1.16c1.63-1.63 3.37-1.6 4.82-.15L20.72 14zm5.8-5.84L25.1 6.75c-.6-.59-1.14-.57-1.8.09l-1.23 1.23c-.65.65-.67 1.2-.08 1.78l1.4 1.41c.59.59 1.14.57 1.8-.08l1.22-1.24c.66-.65.68-1.2.1-1.78zm1.53-1.5c1.46 1.46 1.48 3.2-.15 4.84l-1.16 1.16c-1.63 1.63-3.37 1.6-4.82.14l-1.47-1.46c-1.45-1.45-1.48-3.2.16-4.82l1.16-1.16c1.62-1.63 3.37-1.6 4.82-.15l1.47 1.46zM14.9 23.13c.54.54.46 1.15.04 1.57-.41.41-1.02.48-1.56-.06l-3.08-3.08c-.58-.59-1.14-.57-1.79.09l-1.23 1.23c-.66.66-.67 1.2-.1 1.79l3.09 3.08c.54.54.47 1.15.06 1.57-.42.4-1.03.49-1.57-.05l-3.11-3.11c-1.45-1.46-1.48-3.2.15-4.83l1.16-1.16c1.63-1.63 3.38-1.6 4.83-.15l3.1 3.1zm10.5-2.2c-1.94 1.95-1.94 4.18 0 6.12l19.3 19.29c1.94 1.94 4.16 1.94 6.1 0l19.3-19.3c1.94-1.93 1.94-4.16 0-6.1L50.8 1.64c-1.94-1.94-4.16-1.94-6.1 0L25.4 20.93"/><path fill="#FFFFFE" d="M35.23 23.03c-.91-.21-1.2-.3-1.2-.7 0-.54.77-.62 1.23-.62.42 0 .94.1 1.4.26.12.04.24.08.36.08.33 0 .48-.25.58-.5l.08-.17a1 1 0 00.07-.34c0-.27-.17-.5-.47-.6a5.76 5.76 0 00-1.98-.33c-2 0-3.14.85-3.14 2.33 0 1.64 1.36 1.94 2.8 2.26H35c.8.19 1.19.3 1.19.73 0 .16 0 .64-1.33.64-.53 0-1.08-.1-1.69-.32a1.12 1.12 0 00-.35-.07c-.33 0-.48.25-.58.5l-.1.2a.98.98 0 00-.07.34c0 .27.18.49.47.6.6.23 1.38.35 2.3.35 2.08 0 3.22-.83 3.22-2.34 0-1.64-1.37-1.96-2.82-2.3zm15.86.33l-4.78-3a.6.6 0 00-.92.51v6c0 .47.52.76.92.5l4.78-2.99a.6.6 0 000-1.02zm-6.97 3.05c-.07-.3-.23-.44-.5-.44-.07 0-.2.01-.29.03-.14.02-.26.02-.36.02-.73 0-1.18-.22-1.18-1.36v-2.78h1.63c.49 0 .71-.23.71-.72v-.2c0-.48-.22-.71-.71-.71h-1.64V19.2c0-.49-.22-.72-.71-.72h-.45c-.5 0-.72.23-.72.72v1.05h-.41c-.5 0-.72.23-.72.72v.2c0 .48.23.71.72.71h.41v2.95c0 1.91.92 2.84 2.82 2.84.36 0 .7-.05.95-.1.36-.06.55-.27.55-.59l-.04-.3-.06-.27zm18.95.27l-.05-.27c-.07-.3-.23-.44-.51-.44-.06 0-.2.01-.28.03l-.36.03c-.73 0-1.19-.23-1.19-1.37v-2.78h1.64c.49 0 .71-.23.71-.72v-.2c0-.48-.22-.71-.71-.71h-1.64V19.2c0-.49-.22-.71-.72-.71h-.44c-.5 0-.72.22-.72.71v1.05h-.42c-.49 0-.72.23-.72.72v.2c0 .48.23.71.72.71h.42v2.95c0 1.91.92 2.84 2.81 2.84.37 0 .7-.05.96-.1.35-.06.55-.27.55-.59 0-.07-.02-.18-.05-.3zm-6.2-5.88l-.04.28-.02.14c-.1.41-.22.65-.64.65l-.32-.02a4.47 4.47 0 00-1.64.08v4.88c0 .5-.23.72-.72.72h-.45c-.49 0-.72-.23-.72-.72V21.3c0-.47.21-.75.67-.87a8.49 8.49 0 013.25-.25c.4.04.62.27.62.63z"/></g></svg>