<svg xmlns="http://www.w3.org/2000/svg" xmlns:xlink="http://www.w3.org/1999/xlink" width="60" height="60" viewBox="0 0 60 60"><defs><circle id="teletekst_svg__a" cx="30" cy="30" r="30"/></defs><g fill="none" fill-rule="evenodd"><mask id="teletekst_svg__b" fill="#fff"><use xmlns:xlink="http://www.w3.org/1999/xlink" xlink:href="#teletekst_svg__a"/></mask><use fill="#888" xmlns:xlink="http://www.w3.org/1999/xlink" xlink:href="#teletekst_svg__a"/><path fill="#EEE" fill-rule="nonzero" d="M-4 18v5.237H7.21V43h8.009V23.237h41.635V43h7.95V23.237h44.036V43h7.95V23.237H128V18H-4zm107.62 7H96v10.34h4.972v5.032H96V43h10V32.66h-5.028v-4.974H106V25h-2.38zm-12.501 0h-2.59v7.66H85.47V25H80v18h5.471v-7.66h3.058v-2.68H94V25h-2.881zm-16.55 0H67v18h10v-2.628h-4.972v-5.031H77v-2.682h-4.972v-4.973H77V25h-2.43zm-22.395 0H44v18h11v-2.628h-5.647v-5.031H55v-2.682h-5.647v-4.973H55V25h-2.826zM31 25v18h10v-2.628h-5V25h-5zm-5.583 0H18v18h10v-2.628h-5v-5.031h5v-2.682h-5v-4.973h5V25h-2.583zM89 35v8h5v-8h-5z" mask="url(#teletekst_svg__b)"/></g></svg>