<svg xmlns="http://www.w3.org/2000/svg" width="24" height="24"><path d="M5.627 9.796C6.009 7.02 8.38 4.801 11.279 4.51c3.807-.383 7.082 2.468 7.082 6.108 0 1.161-.341 2.277-1.017 3.307a19.38 19.38 0 00-1.164 1.669c-.266.43-.496.846-.677 1.235-.16.342-.278.656-.35.932a1.82 1.82 0 01-1.543 1.346l-2.693.345c-.915.116-1.79-.435-2.014-1.296a5.932 5.932 0 00-.16-.512c-.21-.59-.525-1.23-.916-1.89a18.246 18.246 0 00-1.246-1.828.736.736 0 01-.096-.153 5.917 5.917 0 01-.858-3.976zm2.623 3.79c.319.443.637.923.935 1.426.435.736.79 1.456 1.036 2.144.077.216.143.427.197.634.029.112.155.192.293.174l2.693-.345c.109-.013.201-.096.234-.223.096-.37.245-.763.44-1.181.207-.446.464-.911.76-1.388a20.08 20.08 0 011.225-1.758c.48-.735.736-1.575.736-2.452 0-2.752-2.474-4.906-5.358-4.616-2.18.22-3.979 1.902-4.266 3.991-.15 1.1.1 2.166.693 3.077l.011.018c.091.116.218.285.371.498zm1.567 8.228c-.428.053-.82-.237-.875-.648-.055-.41.247-.787.674-.84l4.97-.617c.427-.053.819.237.874.648.055.41-.247.787-.674.84l-4.97.617zm0 2.18c-.428.053-.82-.237-.875-.648-.055-.41.247-.787.674-.84l4.97-.617c.427-.053.819.237.874.648.055.41-.247.787-.674.84l-4.97.617zm2.726-21.923c0 .414-.35.75-.78.75-.432 0-.782-.336-.782-.75V.75c0-.414.35-.75.781-.75.432 0 .781.336.781.75v1.321zm8.45 6.515c-.426.069-.829-.207-.9-.616-.072-.408.215-.795.64-.863l1.357-.219c.425-.068.828.207.9.616a.756.756 0 01-.642.864l-1.356.218zm-.981 5.879a.734.734 0 01-.286-1.025.798.798 0 011.066-.274l1.192.66a.734.734 0 01.286 1.024.799.799 0 01-1.067.275l-1.191-.66zM18.483 3.382a.798.798 0 01-1.066.274.733.733 0 01-.286-1.024l.687-1.144a.798.798 0 011.067-.275.734.734 0 01.286 1.025l-.688 1.144zM3.266 7.107c.426.068.713.455.641.863-.071.409-.474.685-.9.616l-1.355-.218a.754.754 0 01-.641-.864c.071-.409.474-.684.9-.616l1.355.219zm-.059 6.059a.8.8 0 011.067.274.734.734 0 01-.286 1.025l-1.191.66a.799.799 0 01-1.067-.275.734.734 0 01.286-1.024l1.191-.66zM6.87 2.632a.733.733 0 01-.286 1.024.798.798 0 01-1.066-.275L4.83 2.237a.734.734 0 01.287-1.024.798.798 0 011.066.275l.687 1.144z" fill="currentColor"/></svg>