<svg xmlns="http://www.w3.org/2000/svg" width="24" height="24"><path d="M0 18.96c.355.038.751.057 1.188.057 2.284 0 4.32-.647 6.106-1.94-1.066-.02-2.02-.322-2.863-.907-.842-.586-1.42-1.334-1.736-2.243.335.046.645.07.93.07.436 0 .867-.052 1.294-.155-1.137-.215-2.079-.738-2.825-1.568-.746-.83-1.12-1.793-1.12-2.89v-.056a5.197 5.197 0 002.224.577 4.703 4.703 0 01-1.599-1.617 4.163 4.163 0 01-.594-2.166c0-.825.223-1.59.67-2.292C2.904 5.227 4.398 6.345 6.16 7.184a14.603 14.603 0 005.657 1.399 4.685 4.685 0 01-.122-1.04c0-1.257.48-2.328 1.44-3.214C14.094 3.443 15.254 3 16.615 3c1.42 0 2.618.478 3.593 1.434a10.133 10.133 0 003.122-1.097c-.376 1.079-1.096 1.913-2.162 2.504A10.42 10.42 0 0024 5.137a9.902 9.902 0 01-2.467 2.349 12.012 12.012 0 01-.563 4.24 12.742 12.742 0 01-1.76 3.494 14.095 14.095 0 01-2.809 2.96c-1.086.858-2.396 1.543-3.929 2.054-1.533.51-3.172.766-4.919.766-2.751 0-5.269-.68-7.553-2.04z" fill="currentColor"/></svg>